<svg width="30.000000" height="23.000000" viewBox="0 0 30 23" fill="none" xmlns="http://www.w3.org/2000/svg" xmlns:xlink="http://www.w3.org/1999/xlink">
	<desc>
			Created with Pixso.
	</desc>
	<defs/>
	<path d="M25.9814 23L4.01917 23C1.80286 23 0 21.2046 0 19L0 4C0 1.79419 1.80286 0 4.01917 0L25.9808 0C28.196 0 30 1.79419 30 4L30 19C30.0006 21.2051 28.1971 23 25.9814 23ZM4.01917 1.14282C2.43561 1.14282 1.14838 2.42407 1.14838 4L1.14838 19C1.14838 20.5754 2.43561 21.8572 4.01917 21.8572L25.9808 21.8572C27.5638 21.8572 28.8516 20.5754 28.8516 19L28.8516 4C28.8516 2.42407 27.5638 1.14282 25.9808 1.14282L4.01917 1.14282ZM20.7037 3.35986C22.1362 3.35986 23.2977 4.51538 23.2977 5.94165C23.2977 7.36768 22.1368 8.52368 20.7037 8.52368C19.2706 8.52368 18.1097 7.36792 18.1097 5.94165C18.1097 4.51514 19.2712 3.35986 20.7037 3.35986ZM24.3204 3.35986C25.7529 3.35986 26.915 4.51538 26.915 5.94165C26.915 7.36768 25.7535 8.52368 24.3204 8.52368C22.8873 8.52368 21.7264 7.36792 21.7264 5.94165C21.7264 4.51514 22.8879 3.35986 24.3204 3.35986ZM3.08612 16.3337L7.86829 16.3337L7.86829 18.0481L3.08612 18.0481L3.08612 16.3337ZM9.43469 16.3337L14.2175 16.3337L14.2175 18.0481L9.43469 18.0481L9.43469 16.3337ZM15.782 16.3337L20.5659 16.3337L20.5659 18.0481L15.782 18.0481L15.782 16.3337ZM22.1306 16.3337L26.9144 16.3337L26.9144 18.0481L22.1306 18.0481L22.1306 16.3337ZM3.08612 3.36035L12.1263 3.36035L12.1263 5.07471L3.08612 5.07471L3.08612 3.36035ZM3.08612 6.76196L7.86945 6.76196L7.86945 8.47632L3.08612 8.47632L3.08612 6.76196Z" fill="#292929" fill-opacity="1.000000" fill-rule="evenodd"/>
</svg>
