<svg width="60.000000" height="60.000000" viewBox="0 0 60 60" fill="none" xmlns="http://www.w3.org/2000/svg" xmlns:xlink="http://www.w3.org/1999/xlink">
	<desc>
			Created with Pixso.
	</desc>
	<defs/>
	<rect id="icon-bowls-and-cups" width="59.999996" height="60.000000" fill="#FFFFFF" fill-opacity="0"/>
	<path id="bowls-and-cups" d="M59.985 39.8552L57.1255 20.644C57.0792 15.0657 53.693 9.89307 47.8159 6.43774C42.9483 3.57617 36.6213 2 30.0001 2C23.3786 2 17.0515 3.57617 12.1838 6.43774C6.30688 9.89307 2.92053 15.0657 2.87439 20.644L0.0148926 39.8552C0.00506592 39.9216 0 39.9888 0 40.0559C0 45.7048 3.76453 50.936 10.3284 54.408C15.7021 57.2505 22.6883 58.8157 30.0001 58.8157C37.3116 58.8157 44.2979 57.2505 49.6716 54.408C56.2354 50.936 60 45.7048 60 40.0559C59.9999 39.9888 59.9949 39.9216 59.985 39.8552ZM13.5668 8.79004C18.0215 6.17114 23.8575 4.72876 30.0001 4.72876C36.1425 4.72876 41.9785 6.17114 46.4331 8.79004C51.4956 11.7664 54.3993 16.1292 54.3993 20.76C54.3993 25.3906 51.4957 29.7534 46.4332 32.73C41.9785 35.3489 36.1425 36.7913 30.0001 36.7913C23.8577 36.7913 18.0215 35.3489 13.5669 32.73C8.50439 29.7537 5.60071 25.3906 5.60071 20.76C5.60071 16.1292 8.50427 11.7664 13.5668 8.79004ZM30.0001 34.0618C39.3535 34.0618 47.6079 30.4426 50.5397 25.0569C51.29 23.6802 51.6707 22.2344 51.6707 20.7598C51.6707 17.0676 49.3194 13.6519 45.0502 11.1421C41.0085 8.76636 35.6637 7.45801 30.0001 7.45801C24.3365 7.45801 18.9916 8.76636 14.9501 11.1423C10.6807 13.6521 8.32947 17.0676 8.32947 20.76C8.32947 22.2346 8.70996 23.6804 9.46008 25.0564C12.3923 30.4426 20.6467 34.0618 30.0001 34.0618ZM11.0579 20.76C11.058 18.0745 12.9313 15.4941 16.3328 13.4944C19.9617 11.3613 24.8154 10.1865 30 10.1865C35.1845 10.1865 40.0384 11.3613 43.6672 13.4946C47.0687 15.4941 48.9421 18.0742 48.9421 20.76C48.9421 20.9993 48.9259 21.238 48.896 21.4761C45.1332 17.3699 37.9658 14.7446 30 14.7446C22.0342 14.7446 14.8669 17.3699 11.1041 21.4761C11.0738 21.2385 11.0584 20.9995 11.0579 20.76ZM30.0001 31.3333C22.1547 31.3333 15.0283 28.5144 12.2557 24.4006C15.0293 20.2891 22.1567 17.4731 30.0001 17.4731C37.8435 17.4731 44.9711 20.2891 47.7446 24.4009C44.9726 28.5144 37.8458 31.3333 30.0001 31.3333ZM23.8843 23.8977L23.4637 23.8977C22.7102 23.8977 22.0994 24.5085 22.0994 25.262C22.0994 26.0156 22.7102 26.6262 23.4637 26.6262L23.8843 26.6262C24.6378 26.6262 25.2486 26.0156 25.2486 25.262C25.2486 24.5085 24.6378 23.8977 23.8843 23.8977ZM30.342 23.8977L40.074 23.8977C40.8275 23.8977 41.4383 24.5085 41.4383 25.262C41.4383 26.0156 40.8275 26.6262 40.074 26.6262L30.342 26.6262C29.5884 26.6262 28.9777 26.0156 28.9777 25.262C28.9777 24.5085 29.5884 23.8977 30.342 23.8977ZM48.3956 51.9958C43.4079 54.6343 36.8749 56.0872 30.0001 56.0872C23.1251 56.0872 16.592 54.6343 11.6044 51.9958C6.00372 49.0334 2.77454 44.7217 2.72919 40.1536L4.60754 27.5342C6.17224 30.4612 8.75281 33.0645 12.1841 35.0818C17.0517 37.9434 23.3787 39.5195 30.0001 39.5195C36.6213 39.5195 42.9485 37.9434 47.816 35.0818C51.2473 33.0645 53.8279 30.4609 55.3926 27.5342L57.2709 40.1536C57.2255 44.7219 53.9963 49.0334 48.3956 51.9958ZM29.4633 41.8801C29.6329 41.8076 29.8155 41.77 30 41.77C30.1845 41.77 30.3671 41.8076 30.5367 41.8801C30.7064 41.9526 30.8596 42.0591 30.9869 42.1924C31.8756 43.1235 34.775 46.3364 34.775 48.5916C34.775 51.2246 32.633 53.3667 30 53.3667C27.3671 53.3667 25.225 51.2246 25.225 48.5916C25.225 46.3364 28.1243 43.1235 29.0131 42.1924C29.1404 42.0591 29.2936 41.9526 29.4633 41.8801ZM27.9536 48.5918C27.9536 49.7202 28.8716 50.6382 30 50.6382C31.1284 50.6382 32.0464 49.7202 32.0464 48.5918C32.0464 47.9858 31.0943 46.5227 30 45.1941C28.9058 46.5225 27.9536 47.9858 27.9536 48.5918Z" fill="#F1CDB3" fill-opacity="1.000000" fill-rule="evenodd"/>
</svg>
