<svg width="60.000000" height="60.000000" viewBox="0 0 60 60" fill="none" xmlns="http://www.w3.org/2000/svg" xmlns:xlink="http://www.w3.org/1999/xlink">
	<desc>
			Created with Pixso.
	</desc>
	<defs>
		<clipPath id="clip209_329">
			<rect id="icon-pet-food" width="60.000000" height="60.000000" fill="white" fill-opacity="0"/>
		</clipPath>
	</defs>
	<rect id="icon-pet-food" width="60.000000" height="60.000000" fill="#FFFFFF" fill-opacity="0"/>
	<g clip-path="url(#clip209_329)">
		<path id="Vector" d="M52.8979 25.4978L47.1431 9.74731L47.1431 1.42847C47.1431 0.639648 46.5032 0 45.7144 0L14.2859 0C13.4971 0 12.8574 0.639648 12.8574 1.42847L12.8574 9.74707L7.10229 25.4978C6.41943 27.3635 6.07056 29.335 6.07153 31.3218L6.07153 55.0764C6.07153 57.7913 8.28027 60 10.9951 60L49.0051 60C51.72 60 53.9285 57.7913 53.9285 55.0764L53.9285 31.3218C53.9285 29.3291 53.5818 27.3694 52.8979 25.4978ZM15.7144 2.85718L44.2859 2.85718L44.2859 8.57153L15.7144 8.57153L15.7144 2.85718ZM51.0715 50.1321L30.9077 50.1321C30.1189 50.1321 29.4792 50.7717 29.4792 51.5605C29.4792 52.3496 30.1189 52.9893 30.9077 52.9893L51.0715 52.9893L51.0715 55.0762C51.0715 56.2156 50.1445 57.1428 49.0051 57.1428L10.9951 57.1428C9.85571 57.1428 8.92871 56.2158 8.92871 55.0762L8.92871 31.3218C8.92773 29.6694 9.21802 28.03 9.78589 26.4783L15.2849 11.4287L44.7153 11.4287L50.2144 26.4783C50.7822 28.03 51.0723 29.6694 51.0715 31.3218L51.0715 50.1321ZM29.5505 25.7751C32.1108 25.7751 34.1936 23.6924 34.1936 21.1323C34.1936 18.572 32.1108 16.4893 29.5505 16.4893C26.9905 16.4893 24.9077 18.572 24.9077 21.1323C24.9077 23.6924 26.9907 25.7751 29.5505 25.7751ZM29.5505 19.3464C30.5354 19.3464 31.3364 20.1475 31.3364 21.1323C31.3364 22.1169 30.5354 22.918 29.5505 22.918C28.5659 22.918 27.7649 22.1169 27.7649 21.1323C27.7649 20.1475 28.5659 19.3464 29.5505 19.3464ZM39.5505 22.0132C36.9905 22.0132 34.9077 24.0959 34.9077 26.656C34.9077 29.2161 36.9907 31.2988 39.5505 31.2988C42.1108 31.2988 44.1934 29.2161 44.1934 26.656C44.1934 24.0957 42.1108 22.0132 39.5505 22.0132ZM19.5508 22.0132C22.1108 22.0132 24.1936 24.0959 24.1936 26.656C24.1936 29.2161 22.1108 31.2988 19.5508 31.2988C16.9905 31.2988 14.9077 29.2161 14.9077 26.656C14.9077 24.0959 16.9907 22.0132 19.5508 22.0132ZM39.5505 28.4419C38.5659 28.4419 37.7649 27.6409 37.7649 26.656C37.7649 25.6714 38.5659 24.8704 39.5505 24.8704C40.5354 24.8704 41.3364 25.6714 41.3364 26.656C41.3364 27.6409 40.5354 28.4419 39.5505 28.4419ZM17.7649 26.656C17.7649 27.6409 18.5659 28.4419 19.5508 28.4419C20.5354 28.4419 21.3364 27.6409 21.3364 26.656C21.3364 25.6714 20.5354 24.8704 19.5508 24.8704C18.5659 24.8704 17.7649 25.6714 17.7649 26.656ZM29.5505 28.6321C32.6079 28.6321 35.1506 30.8772 35.6169 33.8049C38.0339 34.7988 39.6152 37.2756 39.4111 39.9661C39.1833 42.9639 36.7502 45.3923 33.7517 45.615C33.5974 45.6262 33.4429 45.6321 33.2891 45.6321C32.2915 45.6331 31.3086 45.3909 30.4258 44.926C29.8699 44.6326 29.2314 44.6328 28.675 44.9258C27.6572 45.4629 26.5071 45.7012 25.3491 45.6147C22.3506 45.3921 19.9177 42.9636 19.6899 39.9658C19.4858 37.2756 21.0671 34.7988 23.4841 33.8049C23.9504 30.8772 26.4932 28.6321 29.5505 28.6321ZM33.5403 42.7656C35.1416 42.6465 36.4407 41.3501 36.562 39.7495C36.687 38.1062 35.5718 36.6123 33.968 36.2747C33.6423 36.2061 33.3508 36.0261 33.1438 35.7654C32.9365 35.5049 32.8271 35.1802 32.834 34.8472L32.8362 34.7698C32.8362 32.9631 31.3623 31.4893 29.5505 31.4893C27.7388 31.4893 26.2649 32.9631 26.2649 34.7749L26.2671 34.8472C26.2739 35.1799 26.1643 35.5046 25.9573 35.7654C25.7502 36.0259 25.4587 36.2061 25.1331 36.2747C23.5298 36.6123 22.4143 38.1062 22.5393 39.7495C22.6606 41.3501 23.9597 42.6467 25.5608 42.7656C26.1848 42.8123 26.7998 42.6848 27.3425 42.3987C28.0232 42.0393 28.781 41.8518 29.5505 41.8518C30.3203 41.8518 31.0781 42.0393 31.7588 42.3987C32.3015 42.6851 32.9177 42.8127 33.5403 42.7656ZM24.3467 50.1321L24.6934 50.1321C25.4824 50.1321 26.1221 50.772 26.1221 51.5608C26.1221 52.3494 25.4824 52.9893 24.6934 52.9893L24.3467 52.9893C23.5579 52.9893 22.918 52.3496 22.918 51.5608C22.918 50.772 23.5576 50.1321 24.3467 50.1321Z" fill="#F1CDB3" fill-opacity="1.000000" fill-rule="evenodd"/>
	</g>
</svg>
