<svg width="60.000000" height="60.000000" viewBox="0 0 60 60" fill="none" xmlns="http://www.w3.org/2000/svg" xmlns:xlink="http://www.w3.org/1999/xlink">
	<desc>
			Created with Pixso.
	</desc>
	<defs/>
	<rect id="icon-toys" width="60.000000" height="60.000000" fill="#FFFFFF" fill-opacity="0"/>
	<path id="toys" d="M30 0C38.0133 0 45.5469 3.12061 51.2131 8.78662C56.8795 14.4531 60 21.9866 60 30C60 38.0134 56.8795 45.5469 51.2131 51.2134C45.5469 56.8794 38.0133 60 30 60C21.9867 60 14.4531 56.8794 8.78687 51.2134C3.12048 45.5469 0 38.0134 0 30C0 21.9866 3.12048 14.4531 8.78687 8.78662C14.4531 3.12061 21.9867 0 30 0ZM53.7492 33.6973C54.8813 33.8652 56.0063 33.9551 57.1071 33.9661C57.2321 33.1003 57.316 32.2295 57.3586 31.356C57.3417 31.356 57.3252 31.3569 57.3083 31.3569C56.2728 31.3569 55.21 31.2769 54.1326 31.1167C53.42 31.0107 52.9281 30.3477 53.034 29.635C53.1397 28.9224 53.8035 28.4304 54.5159 28.5364C55.4855 28.6804 56.4367 28.7502 57.3624 28.7483C57.0565 21.9021 54.2461 15.5088 49.3688 10.6316C44.3467 5.60913 37.8434 2.94946 31.2521 2.65063C31.2499 3.57031 31.3205 4.51904 31.4638 5.48438C32.2516 10.7876 35.1016 16.1243 39.4888 20.5115C39.9981 21.021 39.9981 21.8469 39.4888 22.3562C38.9794 22.8655 38.1534 22.8655 37.6442 22.3562C32.8641 17.5762 29.7527 11.7205 28.8832 5.86768C28.7214 4.77759 28.6431 3.70264 28.6451 2.65552C27.7712 2.69824 26.8999 2.78271 26.034 2.9082C26.0455 4.00366 26.1354 5.12378 26.3029 6.25098C27.2538 12.6531 30.6265 19.0278 35.7993 24.2007C40.972 29.3735 47.3468 32.7461 53.7492 33.6973ZM35.9247 56.7349C40.8551 55.6504 45.5416 53.1951 49.3685 49.3684C52.9617 45.7754 55.4323 41.3594 56.6073 36.5459L56.5956 36.5654C55.5143 36.5334 54.4358 36.4373 53.3659 36.2776C46.4139 35.2446 39.5203 31.6111 33.9546 26.0452C28.3889 20.4795 24.7551 13.5859 23.7224 6.63428C23.5632 5.56738 23.4672 4.49219 23.4349 3.41406C18.7399 4.56519 14.2923 6.97046 10.6315 10.6313C6.883 14.3799 4.35596 19.0237 3.2475 24.0806L3.25464 24.0747C4.1778 24.1182 5.09821 24.2083 6.01233 24.3445C12.964 25.3772 19.8575 29.011 25.4233 34.5767C30.989 40.1423 34.6229 47.0359 35.6557 53.9878C35.7912 54.8984 35.881 55.8152 35.9247 56.7349ZM45.2296 26.1572C45.4744 25.9131 45.8059 25.7756 46.1517 25.7751C46.4976 25.7756 46.829 25.9131 47.0739 26.1572C47.3165 26.3997 47.456 26.7363 47.456 27.0793C47.4548 27.425 47.3176 27.7563 47.0739 28.0015C46.8313 28.2441 46.4948 28.3835 46.1517 28.3835C45.8087 28.3835 45.4722 28.2441 45.2296 28.0015C44.9857 27.7588 44.8474 27.4224 44.8474 27.0793C44.848 26.7336 44.9854 26.4021 45.2296 26.1572ZM30.4946 54.7544C30.624 55.6204 30.7013 56.4932 30.7262 57.3682C31.5969 57.3455 32.4661 57.2815 33.3307 57.1763C33.2987 56.2371 33.2133 55.3003 33.075 54.3708C32.1239 47.9688 28.7512 41.594 23.5785 36.4214C18.4055 31.2483 12.0308 27.8757 5.62866 26.9248C4.68243 26.7842 3.73792 26.6987 2.80841 26.6682C2.70483 27.5283 2.64105 28.3972 2.61835 29.2732C3.4978 29.2976 4.375 29.3752 5.24518 29.5051C11.098 30.3748 16.9537 33.4858 21.7338 38.2659C26.5139 43.0459 29.6251 48.9019 30.4946 54.7544ZM2.67352 31.8833C3.1192 38.4905 5.90436 44.6416 10.6313 49.3684C15.4928 54.2297 21.7419 56.8774 28.1154 57.3132C28.0894 56.585 28.0223 55.8586 27.9144 55.1379C27.1266 49.8345 24.2766 44.4978 19.8894 40.1106C15.5023 35.7234 10.1654 32.8733 4.86224 32.0857C4.12231 31.9756 3.39001 31.9077 2.67352 31.8833Z" fill="#F1CDB3" fill-opacity="1.000000" fill-rule="evenodd"/>
</svg>
