<svg width="22.000000" height="32.000000" viewBox="0 0 22 32" fill="none" xmlns="http://www.w3.org/2000/svg" xmlns:xlink="http://www.w3.org/1999/xlink">
	<desc>
			Created with Pixso.
	</desc>
	<defs/>
	<rect id="icon-marker" width="22.000000" height="32.000000" fill="#FFFFFF" fill-opacity="0"/>
	<path id="pin" d="M0 10.6667C0 4.78516 4.93472 0 11 0C17.0653 0 22 4.78516 22 10.6665C22 12.4321 21.5448 14.1829 20.6827 15.7305L11.6015 31.6562C11.4807 31.8684 11.2504 32 11 32C10.7496 32 10.5193 31.8684 10.3985 31.6562L1.32065 15.7356C0.455231 14.1829 0 12.4324 0 10.6667ZM11 29.9558L19.4762 15.0906C20.2268 13.7434 20.625 12.2117 20.625 10.6667C20.625 5.52026 16.3073 1.3335 11 1.3335C5.69275 1.3335 1.37503 5.52026 1.37503 10.6667C1.37503 12.2117 1.77316 13.7434 2.52713 15.0964L11 29.9558ZM5.50006 10.6665C5.50006 7.72583 7.96738 5.33325 11 5.33325C14.0327 5.33325 16.5 7.72583 16.5 10.6667C16.5 13.6074 14.0327 16 11 16C7.96738 16 5.50006 13.6074 5.50006 10.6665ZM6.87503 10.6667C6.87503 12.8723 8.72534 14.6667 11 14.6667C13.2747 14.6667 15.125 12.8723 15.125 10.6667C15.125 8.46094 13.2747 6.66675 11 6.66675C8.72534 6.66675 6.87503 8.46094 6.87503 10.6667Z" fill="#F1CDB3" fill-opacity="1.000000" fill-rule="evenodd"/>
</svg>
