<svg width="60.000000" height="60.000000" viewBox="0 0 60 60" fill="none" xmlns="http://www.w3.org/2000/svg" xmlns:xlink="http://www.w3.org/1999/xlink">
	<desc>
			Created with Pixso.
	</desc>
	<defs/>
	<rect id="icon-vitamins" width="60.000000" height="60.000000" fill="#FFFFFF" fill-opacity="0"/>
	<path id="vitamins" d="M42.1158 33.6702C46.7048 33.6702 51.0359 34.2839 54.3108 35.3987C59.0129 36.999 60 39.0723 60 40.5298L60 50.2991C60 51.7566 59.0129 53.8301 54.3107 55.4302C51.0357 56.5449 46.7047 57.1587 42.1157 57.1587C37.5266 57.1587 33.1957 56.5449 29.9208 55.4302C27.1451 54.4856 25.6645 53.376 24.9168 52.3257C23.8881 53.4937 22.6721 54.4934 21.3188 55.2717C19.1722 56.5061 16.722 57.1587 14.2325 57.1587C6.38461 57.1587 0 50.7739 0 42.926L0 17.2324C0 9.38477 6.38461 3 14.2325 3C22.0805 3 28.4651 9.38477 28.4651 17.2324L28.4651 35.959C28.9424 35.7522 29.428 35.5654 29.9207 35.3987C32.991 34.3535 36.9894 33.7488 41.2585 33.6772C41.5431 33.6726 41.8289 33.6702 42.1158 33.6702ZM7.03125 28.9075L26.1213 28.9075L26.1213 17.2324C26.1213 10.677 20.788 5.34375 14.2325 5.34375C7.67706 5.34375 2.34375 10.677 2.34375 17.2324L2.34375 28.9075L4.6875 28.9075L4.6875 17.2324C4.6875 11.9695 8.96942 7.6875 14.2325 7.6875C19.4957 7.6875 23.7776 11.9695 23.7776 17.2324C23.7776 17.8799 23.2529 18.4043 22.6057 18.4043C21.9586 18.4043 21.4338 17.8799 21.4338 17.2324C21.4338 13.2617 18.2034 10.0312 14.2325 10.0312C10.2616 10.0312 7.03125 13.2617 7.03125 17.2324L7.03125 28.9075ZM24.4591 39.3381C24.7144 38.6858 25.2179 37.9824 26.1213 37.2903L26.1213 31.2512L7.03125 31.2512L7.03125 37.5793C7.03125 38.2266 6.50648 38.7512 5.85938 38.7512C5.21227 38.7512 4.6875 38.2266 4.6875 37.5793L4.6875 31.2512L2.34375 31.2512L2.34375 42.926C2.34375 49.4817 7.67706 54.8149 14.2325 54.8149C18.315 54.8149 22.0289 52.7825 24.2313 49.3608L24.2313 40.5298C24.2313 40.4766 24.2331 40.4224 24.2359 40.3677L24.2379 40.3374C24.2443 40.2305 24.2561 40.1238 24.2733 40.0181C24.3108 39.7854 24.3731 39.5576 24.4591 39.3381ZM26.5871 40.3999C26.5798 40.4429 26.5759 40.4863 26.5754 40.5298L26.5754 40.5322C26.5767 40.9077 26.8868 41.4214 27.6397 41.9756L52.719 37.354C49.7904 36.488 46.0691 36.0139 42.1158 36.0139C37.7769 36.0139 33.7141 36.5833 30.6759 37.6172C29.478 38.0249 28.5871 38.4565 27.9464 38.8726C27.9418 38.8757 27.9379 38.8794 27.9332 38.8826C27.6601 39.0603 27.4235 39.2422 27.2271 39.4233L27.193 39.4551C27.1641 39.4824 27.137 39.5098 27.1099 39.5369C27.0695 39.5779 27.0307 39.6187 26.9952 39.6589L26.9907 39.6638C26.7563 39.9304 26.6289 40.1765 26.5891 40.3882L26.5871 40.3999ZM42.1158 45.0459C46.4548 45.0459 50.5174 44.4763 53.5556 43.4424C56.5823 42.4124 57.6562 41.2295 57.6562 40.5298C57.6562 40.1436 57.3278 39.6099 56.525 39.0359L31.386 43.6685C34.3334 44.5583 38.1056 45.0459 42.1158 45.0459ZM6.50977 41.2566C6.57422 41.2988 6.63387 41.3481 6.68777 41.4021C6.90585 41.6199 7.03125 41.9224 7.03125 42.2305C7.03125 42.3079 7.02422 42.384 7.00897 42.4602C6.99374 42.5352 6.97031 42.6091 6.94101 42.6794C6.91171 42.7498 6.87538 42.8176 6.83319 42.8821C6.79112 42.9453 6.74191 43.0051 6.68788 43.0603C6.63397 43.1143 6.57422 43.1621 6.50977 43.2056C6.44592 43.248 6.37801 43.2842 6.30702 43.3135C6.16525 43.3726 6.01311 43.4028 5.85948 43.4023C5.78331 43.4023 5.70596 43.3955 5.63097 43.3801C5.40396 43.3345 5.19533 43.2231 5.03085 43.0603C4.97694 43.0051 4.92773 42.9453 4.88554 42.8821C4.84218 42.8176 4.80702 42.7498 4.77773 42.6794C4.74843 42.6091 4.72499 42.5352 4.71104 42.4602C4.69569 42.384 4.68761 42.3079 4.68761 42.2305C4.68761 42.1543 4.69569 42.0771 4.71104 42.002C4.72499 41.927 4.74843 41.8533 4.77773 41.783C4.80702 41.7114 4.84218 41.6436 4.88554 41.5801C4.92773 41.5156 4.97694 41.4558 5.03085 41.4021C5.08476 41.3481 5.14453 41.2988 5.20909 41.2566C5.27237 41.2146 5.34023 41.1782 5.41066 41.1489C5.48215 41.1196 5.55597 41.0974 5.63097 41.082C5.78178 41.0515 5.93718 41.0515 6.088 41.082C6.16299 41.0974 6.23671 41.1196 6.30702 41.1489C6.37801 41.178 6.44592 41.2141 6.50977 41.2566ZM53.5556 53.2117C56.5823 52.1814 57.6562 50.9988 57.6562 50.2991L57.6562 44.093C56.8355 44.6394 55.7471 45.1724 54.3108 45.6611C51.0359 46.7756 46.7048 47.3896 42.1158 47.3896C37.5267 47.3896 33.1957 46.7756 29.9208 45.6611C28.4844 45.1724 27.3962 44.6394 26.5754 44.0933L26.5754 49.697L26.5753 49.6987L26.5753 50.2991C26.5753 50.9988 27.6492 52.1814 30.6759 53.2117C33.7141 54.2456 37.7769 54.8149 42.1158 54.8149C46.4547 54.8149 50.5174 54.2456 53.5556 53.2117Z" fill="#F1CDB3" fill-opacity="1.000000" fill-rule="evenodd"/>
</svg>
