<svg width="60.023499" height="60.000000" viewBox="0 0 60.0235 60" fill="none" xmlns="http://www.w3.org/2000/svg" xmlns:xlink="http://www.w3.org/1999/xlink">
	<desc>
			Created with Pixso.
	</desc>
	<defs/>
	<rect id="icon-transportation" width="60.000000" height="59.999931" transform="translate(0.023499 0.000000)" fill="#FFFFFF" fill-opacity="0"/>
	<path id="transportation" d="M40.2448 1.17188C40.2448 0.524658 40.7696 0 41.4167 0C42.0639 0 42.5886 0.524658 42.5886 1.17188L42.5886 3.13354C42.5886 3.78076 42.0639 4.30542 41.4167 4.30542C40.7696 4.30542 40.2448 3.78076 40.2448 3.13354L40.2448 1.17188ZM47.9894 3.27222C48.4987 2.87256 49.2352 2.96118 49.6348 3.47021C50.0345 3.97949 49.9459 4.71606 49.4368 5.11572L47.8011 6.3999C47.5951 6.56226 47.3404 6.65039 47.0782 6.65015C46.9004 6.65039 46.725 6.61011 46.5651 6.53247C46.4053 6.45483 46.2652 6.3418 46.1556 6.2019C45.7559 5.69263 45.8446 4.95605 46.3537 4.5564L47.9894 3.27222ZM36.4797 4.55664L34.844 3.27222C34.723 3.17725 34.5844 3.10693 34.4362 3.06543C34.288 3.02417 34.1331 3.01221 33.9803 3.03052C33.8275 3.04907 33.6798 3.09717 33.5457 3.17285C33.4116 3.24829 33.2936 3.34937 33.1986 3.47046C32.799 3.97949 32.8877 4.71606 33.3966 5.11572L35.0323 6.3999C35.2383 6.56226 35.493 6.65039 35.7552 6.65015C35.933 6.65039 36.1084 6.61011 36.2682 6.53247C36.428 6.45483 36.5681 6.3418 36.6778 6.2019C37.0775 5.69287 36.9888 4.9563 36.4797 4.55664ZM55.0279 12.7114L48.0049 12.7114L48.0049 12.5095C48.0049 8.87671 45.0495 5.92114 41.4167 5.92114C37.7838 5.92114 34.8284 8.87671 34.8284 12.5095L34.8284 12.7114L26.5806 12.7114C23.8649 12.7114 21.6555 14.9209 21.6555 17.6365L21.6555 23.2009L14.2693 23.2009C12.5073 23.2009 10.9411 24.2561 10.2794 25.8894C10.2697 25.9133 10.2608 25.9375 10.2526 25.9619L5.99158 38.8689C5.95291 38.8918 5.90356 38.9192 5.84216 38.9497C5.59854 39.0715 5.14279 39.2568 4.35858 39.4485C3.11411 39.75 2.00739 40.4617 1.21674 41.4688C0.426056 42.4758 -0.00253296 43.72 0 45.0005L0 51.0986C0 53.1406 1.66113 54.8018 3.70303 54.8018L8.92725 54.802C9.47885 57.7561 12.0749 60 15.1867 60C18.2984 60 20.8944 57.7561 21.4461 54.802L39.8707 54.8025C40.4224 57.7563 43.0184 60 46.1301 60C49.2416 60 51.8376 57.7566 52.3894 54.8025L55.7071 54.8027C58.2466 54.8027 59.9529 53.0962 59.9529 50.5569L59.9529 20.0801C59.9529 13.4294 56.5086 12.7114 55.0279 12.7114ZM37.1721 12.5095C37.1721 10.1689 39.0762 8.26489 41.4167 8.26489C43.7571 8.26489 45.6612 10.1689 45.6612 12.5095L45.6612 12.7114L37.1721 12.7114L37.1721 12.5095ZM55.7071 52.4587L52.3913 52.4587C52.3874 52.438 52.3824 52.4175 52.3783 52.3967C52.3507 52.259 52.3189 52.1223 52.283 51.9863C52.267 51.927 52.2502 51.8679 52.2325 51.8091C52.2215 51.7725 52.2107 51.7358 52.1992 51.6995C52.1795 51.6382 52.1588 51.5771 52.1372 51.5166C52.1257 51.4841 52.1148 51.4514 52.1028 51.4192C52.0766 51.3491 52.0492 51.2798 52.0205 51.2109C52.0115 51.1892 52.0033 51.167 51.994 51.1453C51.9553 51.0542 51.9145 50.9641 51.8716 50.875C51.8663 50.8638 51.8604 50.8533 51.855 50.8423C51.8176 50.7656 51.7787 50.6897 51.7383 50.6145C51.7234 50.5872 51.7076 50.5603 51.6924 50.533C51.6602 50.4749 51.6271 50.4175 51.5931 50.3606C51.5746 50.3298 51.5554 50.2996 51.5363 50.269C51.484 50.1846 51.4296 50.1016 51.373 50.02C51.3174 49.9395 51.2599 49.8601 51.2007 49.7822C51.1638 49.7336 51.1261 49.6858 51.0878 49.6384C51.0649 49.6101 51.0424 49.5818 51.0191 49.554C50.9774 49.5044 50.9349 49.4553 50.8917 49.407C50.8704 49.3831 50.8497 49.3584 50.828 49.335C50.7742 49.2764 50.7193 49.2188 50.6633 49.1624C50.6513 49.1501 50.6398 49.1375 50.6276 49.1252C50.5585 49.0564 50.4879 48.989 50.4157 48.9233C50.4004 48.9092 50.3843 48.896 50.3687 48.8821C50.3123 48.8315 50.2551 48.7815 50.1967 48.7329C50.1711 48.7117 50.1448 48.6912 50.1189 48.6704C50.0695 48.6304 50.0195 48.5911 49.969 48.5525C49.9392 48.53 49.9091 48.5081 49.879 48.4861C49.7516 48.3928 49.6207 48.3042 49.4865 48.2209C49.4537 48.2004 49.4208 48.1802 49.3875 48.1602C49.3356 48.1292 49.2831 48.0994 49.2303 48.0698C49.1978 48.0515 49.1654 48.0332 49.1326 48.0156C49.0752 47.9846 49.017 47.9553 48.9585 47.9263C48.9294 47.9116 48.9007 47.8965 48.8714 47.8826C48.7948 47.8459 48.7175 47.811 48.6395 47.7776C48.6276 47.7725 48.6158 47.7668 48.6038 47.7615C48.5131 47.7234 48.4215 47.687 48.3291 47.6531C48.3027 47.6433 48.2759 47.6348 48.2493 47.6255C48.183 47.6021 48.1165 47.5789 48.0492 47.5576C48.014 47.5464 47.9783 47.5364 47.9428 47.5259C47.8832 47.5081 47.8234 47.4907 47.7631 47.4746C47.7244 47.4644 47.6855 47.4548 47.6465 47.4453C47.548 47.4211 47.4489 47.3992 47.3494 47.3799C47.2904 47.3684 47.2313 47.3577 47.172 47.3479C47.1313 47.3413 47.0906 47.3345 47.0497 47.3286C46.9881 47.3198 46.9263 47.312 46.8645 47.3052C46.8252 47.3005 46.7861 47.2957 46.7466 47.292C46.678 47.2856 46.6094 47.2803 46.5407 47.2761C46.507 47.2742 46.4738 47.271 46.44 47.2693C46.3367 47.2644 46.2333 47.2617 46.1299 47.2615C46.026 47.2615 45.9226 47.2644 45.8199 47.2693C45.7861 47.271 45.7527 47.2742 45.7191 47.2761C45.6503 47.2805 45.5816 47.2854 45.5134 47.292C45.4738 47.2957 45.4347 47.3008 45.3953 47.3052C45.3334 47.3125 45.2717 47.3198 45.2104 47.3289C45.1693 47.3347 45.1284 47.3416 45.0877 47.3481C44.9876 47.365 44.8879 47.3838 44.7886 47.4048C44.7303 47.4175 44.6721 47.4309 44.6141 47.4453C44.5747 47.4548 44.5355 47.4646 44.4965 47.4749C44.4367 47.4907 44.3775 47.5078 44.3185 47.5254C44.2823 47.5361 44.246 47.5464 44.2102 47.5579C44.1445 47.5789 44.0791 47.6011 44.0141 47.6243C43.9862 47.634 43.958 47.6431 43.9302 47.6533C43.8381 47.6875 43.7469 47.7231 43.6569 47.7612C43.642 47.7676 43.6275 47.7747 43.6126 47.7812C43.5375 47.8137 43.463 47.8469 43.3894 47.8821C43.3583 47.897 43.328 47.9131 43.2972 47.9282C43.2407 47.9565 43.1842 47.9849 43.1287 48.0146C43.0943 48.0332 43.0605 48.0525 43.0265 48.0715C42.9753 48.1001 42.9245 48.1294 42.8741 48.1592C42.7556 48.2305 42.6393 48.3052 42.5254 48.3833C42.478 48.416 42.4311 48.4495 42.3846 48.4834C42.3526 48.5068 42.3205 48.53 42.289 48.554C42.2408 48.5903 42.1936 48.6282 42.1465 48.666C42.1181 48.6887 42.0894 48.7109 42.0614 48.7344C42.0073 48.7795 41.9543 48.8259 41.9017 48.8728C41.8821 48.8901 41.8621 48.9067 41.8427 48.9243C41.7716 48.9893 41.702 49.0557 41.6339 49.1235C41.6167 49.1406 41.6004 49.1587 41.5833 49.176C41.5328 49.2275 41.4826 49.2795 41.4338 49.3328C41.4094 49.3596 41.3858 49.387 41.3619 49.4141C41.3217 49.4595 41.2818 49.5049 41.2429 49.5513C41.2176 49.5818 41.1929 49.6125 41.1682 49.6433C41.1321 49.6882 41.0965 49.7332 41.0616 49.7788C40.9779 49.8889 40.8976 50.0017 40.821 50.1169C40.789 50.165 40.7581 50.2136 40.7275 50.2627C40.7065 50.2961 40.6853 50.3296 40.665 50.3635C40.6334 50.416 40.6031 50.4695 40.5732 50.5232C40.5556 50.5544 40.5374 50.5854 40.5203 50.6172C40.4842 50.6841 40.4499 50.752 40.4162 50.8201C40.4067 50.8394 40.3965 50.8579 40.3873 50.8774C40.3452 50.9651 40.305 51.0535 40.2669 51.1431C40.2553 51.1704 40.2449 51.1982 40.2336 51.2258C40.2078 51.2888 40.1822 51.3523 40.1583 51.4165C40.1449 51.4524 40.1329 51.4888 40.1201 51.5247C40.0999 51.5815 40.0805 51.6389 40.0619 51.6963C40.0493 51.7356 40.0377 51.7751 40.0259 51.8147C39.9971 51.9109 39.9706 52.0081 39.9465 52.1057C39.9326 52.1619 39.9196 52.2188 39.9072 52.2759C39.8981 52.3171 39.8892 52.3584 39.881 52.4001C39.8772 52.4197 39.8724 52.4392 39.8687 52.4587L21.4475 52.4585C21.4437 52.4382 21.4389 52.4182 21.4349 52.3979C21.427 52.3579 21.4184 52.3181 21.4098 52.2783C21.3758 52.1213 21.3358 51.9658 21.2897 51.8123C21.2783 51.7739 21.267 51.7358 21.2549 51.6978C21.2359 51.6389 21.2161 51.5803 21.1954 51.5222C21.183 51.4873 21.1712 51.4521 21.1583 51.4175C21.1339 51.3523 21.1083 51.2874 21.0816 51.2231C21.0708 51.1968 21.0607 51.1697 21.0495 51.1436C21.0113 51.0537 20.9711 50.9648 20.9288 50.8772C20.9202 50.8594 20.9108 50.8423 20.9022 50.8247C20.868 50.7549 20.8324 50.6855 20.7955 50.6169C20.7789 50.5859 20.7611 50.5557 20.7438 50.5249C20.7134 50.4707 20.6828 50.4165 20.6508 50.3633C20.6306 50.3298 20.6096 50.2969 20.5889 50.2637C20.5582 50.2144 20.5269 50.1653 20.4948 50.1169C20.4181 50.002 20.3379 49.8894 20.2543 49.7793C20.2195 49.7334 20.1839 49.6885 20.1478 49.6438C20.123 49.613 20.0983 49.582 20.0729 49.5515C20.034 49.5054 19.9945 49.46 19.9543 49.4148C19.9302 49.3875 19.9065 49.3599 19.882 49.333C19.8338 49.2803 19.7841 49.229 19.734 49.1777C19.7165 49.1599 19.6997 49.1414 19.6819 49.1238C19.6139 49.0559 19.5444 48.9897 19.4734 48.925C19.4537 48.907 19.4331 48.8899 19.4132 48.8721C19.3611 48.8254 19.3083 48.7798 19.2547 48.7349C19.2264 48.7114 19.1973 48.6887 19.1686 48.6658C19.122 48.6282 19.0751 48.5908 19.0273 48.5547C18.9955 48.5305 18.9632 48.5071 18.9309 48.4836C18.8847 48.4497 18.838 48.4165 18.7909 48.3838C18.7103 48.3286 18.6284 48.2749 18.5454 48.2231C18.511 48.2017 18.4763 48.1804 18.4415 48.1594C18.3914 48.1296 18.3409 48.1006 18.29 48.0723C18.2558 48.053 18.2217 48.0337 18.187 48.0151C18.1317 47.9856 18.076 47.957 18.0198 47.9292C17.9886 47.9136 17.9578 47.8975 17.9263 47.8823C17.8535 47.8479 17.7802 47.8145 17.7062 47.7827C17.6904 47.7759 17.6749 47.7683 17.659 47.7615C17.5688 47.7234 17.4778 47.6875 17.3861 47.6536C17.3578 47.6433 17.3291 47.634 17.3006 47.624C17.2361 47.6011 17.1713 47.5789 17.1061 47.5581C17.07 47.5466 17.0333 47.5361 16.9969 47.5254C16.9381 47.5078 16.8791 47.491 16.8198 47.4751C16.7805 47.4646 16.7411 47.4551 16.7016 47.4453C16.5452 47.4067 16.3874 47.3743 16.2284 47.3484C16.1876 47.3418 16.1468 47.335 16.1057 47.3289C16.0441 47.3201 15.9824 47.3123 15.9207 47.3054C15.8814 47.3008 15.8422 47.2959 15.8027 47.292C15.7342 47.2856 15.6656 47.2805 15.5969 47.2764C15.5632 47.2742 15.5299 47.2712 15.4962 47.2695C15.3929 47.2644 15.2895 47.2617 15.1861 47.2617C15.0822 47.2617 14.9789 47.2646 14.876 47.2695C14.8423 47.2712 14.8089 47.2742 14.7752 47.2764C14.7065 47.2808 14.6378 47.2854 14.5696 47.292C14.53 47.2959 14.4907 47.3008 14.4514 47.3054C14.3897 47.3123 14.3281 47.3201 14.2667 47.3289C14.2254 47.335 14.1845 47.3418 14.1436 47.3484C14.0435 47.3647 13.9438 47.3838 13.8447 47.405C13.7865 47.4175 13.7288 47.4309 13.6711 47.4451C13.6314 47.4548 13.5915 47.4646 13.5522 47.4751C13.4933 47.491 13.4347 47.5076 13.3764 47.5251C13.3396 47.5359 13.3026 47.5466 13.266 47.5581C13.2015 47.5784 13.1378 47.6006 13.0742 47.623C13.0447 47.6333 13.0151 47.6428 12.9859 47.6536C12.8943 47.6875 12.8036 47.7231 12.7141 47.761C12.6959 47.7688 12.6782 47.7773 12.6601 47.7852C12.5885 47.8162 12.5173 47.8481 12.447 47.8816C12.4142 47.8975 12.382 47.9143 12.3495 47.9307C12.2947 47.9578 12.2403 47.9856 12.1863 48.0142C12.1507 48.0334 12.1157 48.0535 12.0804 48.0732C12.0307 48.1011 11.9811 48.1292 11.9323 48.1584C11.8487 48.2085 11.7662 48.2605 11.6849 48.3142C11.6497 48.3374 11.6148 48.3608 11.5801 48.3848C11.5342 48.4163 11.489 48.4487 11.4438 48.4817C11.4104 48.5059 11.3768 48.5303 11.3439 48.5552C11.2978 48.5903 11.2526 48.6262 11.2075 48.6626C11.1771 48.687 11.1464 48.7107 11.1166 48.7356C11.0659 48.7778 11.0164 48.8215 10.9671 48.8652C10.9442 48.8855 10.9207 48.905 10.898 48.9258C10.8278 48.9897 10.759 49.0554 10.6916 49.1226C10.6707 49.1433 10.6508 49.165 10.6302 49.1863C10.5834 49.2341 10.5369 49.2822 10.4917 49.3315C10.4653 49.3604 10.44 49.3899 10.4142 49.4192C10.376 49.4624 10.338 49.5056 10.301 49.5498C10.2743 49.5818 10.2483 49.6143 10.2223 49.6467C10.1876 49.6897 10.1535 49.7332 10.12 49.7769C10.0611 49.8545 10.0039 49.9331 9.94852 50.0132C9.92419 50.0483 9.90021 50.0835 9.87659 50.1189C9.84576 50.1653 9.81598 50.2124 9.78635 50.2595C9.76431 50.2947 9.74216 50.3296 9.72083 50.3652C9.69049 50.4155 9.66153 50.467 9.6326 50.5183C9.61383 50.5518 9.59451 50.5847 9.57623 50.6184C9.54245 50.6816 9.50977 50.7454 9.47815 50.8098C9.46664 50.8328 9.45447 50.8552 9.44333 50.8784C9.40161 50.9651 9.36188 51.053 9.32404 51.1418C9.31116 51.1719 9.29965 51.2029 9.28723 51.2332C9.26263 51.2937 9.23813 51.354 9.21539 51.415C9.20145 51.4526 9.18881 51.4905 9.17557 51.5281C9.1561 51.5835 9.1369 51.6389 9.11896 51.6951C9.10608 51.7351 9.09412 51.7756 9.08203 51.8162C9.06577 51.8711 9.04993 51.9258 9.03506 51.9812C9.00897 52.0781 8.98532 52.1758 8.96414 52.2739C8.95502 52.3162 8.94586 52.3582 8.93756 52.4006C8.93381 52.4199 8.92911 52.439 8.92548 52.458L3.70303 52.458C2.95349 52.458 2.34375 51.8484 2.34375 51.0986L2.34375 45.0005C2.34219 44.2451 2.59497 43.5112 3.06134 42.9172C3.52771 42.323 4.18054 41.9033 4.91461 41.7253C5.58246 41.562 6.1561 41.376 6.62451 41.1704L49.1861 41.1704C49.8332 41.1704 50.3579 40.6458 50.3579 39.9985C50.3579 39.3516 49.8332 38.8267 49.1861 38.8267L23.9993 38.8267L23.9993 17.6365C23.9993 16.2134 25.1573 15.0552 26.5806 15.0552L55.0277 15.0552C57.2738 15.0552 57.609 18.2034 57.609 20.0801L57.609 50.5566C57.609 52.2117 56.4174 52.4587 55.7071 52.4587ZM47.9384 21.6616C49.3802 21.9863 50.4608 23.2764 50.4606 24.8147C50.4606 26.1162 49.6871 27.24 48.5758 27.752C49.3586 28.7207 49.8154 29.9463 49.8154 31.2424C49.8154 34.3027 47.3255 36.7927 44.265 36.7927C43.2618 36.7922 42.2775 36.5203 41.4167 36.0051C40.5605 36.5171 39.5764 36.7927 38.5683 36.7927C35.5078 36.7927 33.018 34.3027 33.018 31.2424C33.018 29.9463 33.4748 28.7207 34.2576 27.752C33.1464 27.24 32.3727 26.1162 32.3727 24.8147C32.3727 23.2766 33.4526 21.9871 34.8938 21.6619C34.8862 21.5774 34.8803 21.4924 34.8787 21.4065C34.8601 20.4482 35.223 19.5403 35.9002 18.8499C36.5821 18.1543 37.5321 17.7556 38.5066 17.7556C39.6973 17.7556 40.7563 18.3337 41.4183 19.2239C42.0808 18.3337 43.1389 17.7556 44.3269 17.7556C45.3101 17.7556 46.2667 18.1597 46.9517 18.864C47.6252 19.5566 47.9814 20.4634 47.9546 21.4167C47.9522 21.4993 47.9461 21.5806 47.9384 21.6616ZM38.0001 20.2004C37.8398 20.2678 37.6946 20.3665 37.5733 20.491C37.3404 20.7285 37.2155 21.0374 37.2218 21.3613C37.2355 22.0703 37.8204 22.6567 38.5258 22.6682C38.691 22.6704 38.855 22.6389 39.0078 22.5759C39.0456 22.5576 39.083 22.5391 39.1213 22.5217C39.2248 22.4661 39.3199 22.396 39.4036 22.3135C39.527 22.1924 39.6248 22.0481 39.6913 21.8884C39.7578 21.729 39.7916 21.5579 39.7907 21.385C39.7899 20.6763 39.2138 20.0994 38.5064 20.0994C38.3326 20.0989 38.1604 20.1333 38.0001 20.2004ZM45.2713 20.4978C45.0251 20.2446 44.6809 20.0996 44.3269 20.0996C43.6217 20.0996 43.0455 20.6777 43.0427 21.3884C43.0412 21.7385 43.1753 22.0647 43.4201 22.3076C43.5057 22.3928 43.6035 22.4646 43.7103 22.521C43.7314 22.5303 43.752 22.5408 43.7729 22.5505C43.9426 22.6279 44.1269 22.668 44.3133 22.6682C45.0091 22.6602 45.5915 22.0693 45.6118 21.3508C45.6205 21.0356 45.4997 20.7329 45.2713 20.4978ZM35.6053 23.9258C35.1153 23.9258 34.7164 24.3245 34.7165 24.8149C34.7165 25.3049 35.1153 25.7039 35.6055 25.7039C35.9247 25.7039 36.2044 25.5342 36.3612 25.2808C36.3884 25.2207 36.4166 25.1611 36.4459 25.1023C36.4769 25.0117 36.4944 24.9155 36.4944 24.8149C36.4944 24.3245 36.0956 23.9258 35.6053 23.9258ZM46.4723 25.2808C46.6291 25.5342 46.9088 25.7039 47.228 25.7039C47.7182 25.7039 48.117 25.3049 48.1171 24.8149C48.1171 24.3245 47.7183 23.9258 47.2281 23.9258C46.7378 23.9258 46.339 24.3245 46.339 24.8149C46.3392 24.9126 46.3556 25.0098 46.3875 25.1023C46.4168 25.1611 46.4451 25.2207 46.4723 25.2808ZM42.1796 33.677C42.7603 34.175 43.5 34.449 44.265 34.4492C46.0331 34.4492 47.4716 33.0105 47.4716 31.2427C47.4716 29.9023 46.6266 28.6919 45.3689 28.2307C45.1627 28.155 44.9818 28.0229 44.847 27.8496C44.7122 27.676 44.6288 27.468 44.6065 27.2495C44.5737 26.9272 44.4923 26.6118 44.3651 26.314C44.3234 26.2346 44.2842 26.1538 44.2491 26.0708C43.9378 25.4844 43.4514 25.0095 42.8576 24.7124C42.8066 24.6899 42.7562 24.6665 42.7063 24.6418C42.311 24.4692 41.8748 24.3738 41.4167 24.3738C40.972 24.373 40.532 24.4648 40.1246 24.6428C40.0746 24.6677 40.0243 24.6912 39.9733 24.7136C39.3806 25.0107 38.8951 25.4851 38.5843 26.0708C38.5491 26.1538 38.5099 26.2346 38.4682 26.314C38.3411 26.6118 38.2597 26.9272 38.2268 27.2495C38.2045 27.468 38.1212 27.676 37.9864 27.8496C37.8516 28.0229 37.6707 28.155 37.4644 28.2307C36.2068 28.6919 35.3617 29.9023 35.3617 31.2427C35.3617 33.0107 36.8002 34.4492 38.5683 34.4492C39.3333 34.449 40.0731 34.175 40.6538 33.677C40.8661 33.4946 41.1368 33.3943 41.4167 33.3945C41.6966 33.3943 41.9673 33.4944 42.1796 33.677ZM12.4648 26.7378C12.6145 26.3833 12.8657 26.0808 13.1867 25.8687C13.5078 25.6562 13.8843 25.5437 14.2692 25.5447L21.6555 25.5447L21.6555 38.8267L8.47372 38.8267L12.4648 26.7378ZM55.0428 39.7759C55.0278 39.7007 55.0054 39.6274 54.9761 39.5566C54.9469 39.4856 54.9108 39.4177 54.8683 39.354C54.8261 39.2898 54.7774 39.23 54.723 39.1758C54.6688 39.1213 54.6091 39.0728 54.5449 39.0305C54.4167 38.9458 54.2735 38.8865 54.123 38.856C53.9722 38.8254 53.8168 38.8254 53.666 38.856C53.5909 38.8711 53.5171 38.8933 53.4456 38.9226C53.3753 38.9519 53.3074 38.9883 53.2441 39.0305C53.1796 39.0728 53.1199 39.1218 53.0659 39.1758C53.0119 39.2297 52.9627 39.2896 52.9195 39.354C52.8773 39.4172 52.8409 39.4851 52.8128 39.5566C52.7835 39.627 52.7601 39.7007 52.746 39.7759C52.7308 39.8508 52.7226 39.9282 52.7226 40.0044C52.7226 40.0803 52.7308 40.1577 52.746 40.2339C52.7601 40.3079 52.7835 40.3816 52.8128 40.4531C52.8421 40.5234 52.8784 40.5913 52.9207 40.6548C52.9627 40.7192 53.0119 40.7788 53.0659 40.8328C53.1199 40.8867 53.1796 40.936 53.2441 40.9792C53.3074 41.0215 53.3753 41.0566 53.4456 41.0859C53.5171 41.1152 53.5909 41.1387 53.666 41.1528C53.7411 41.168 53.8184 41.1763 53.8945 41.1763C53.9706 41.1763 54.0481 41.168 54.123 41.1528C54.198 41.1387 54.2718 41.1152 54.3421 41.0859C54.4136 41.0566 54.4816 41.0215 54.5449 40.9792C54.6094 40.936 54.6692 40.8867 54.723 40.8328C54.7769 40.7788 54.8261 40.7192 54.8683 40.6548C54.9104 40.5913 54.9468 40.5234 54.9761 40.4531C55.0054 40.3816 55.0276 40.3079 55.0428 40.2339C55.0581 40.1577 55.0662 40.0803 55.0662 40.0044C55.0662 39.9282 55.0581 39.8508 55.0428 39.7759ZM15.1867 57.6562C12.967 57.6562 11.1612 55.8503 11.1612 53.6306C11.1612 53.6033 11.1627 53.5762 11.1633 53.5488C11.1641 53.5068 11.1643 53.4651 11.1664 53.4233C11.1668 53.4167 11.1676 53.4104 11.168 53.4038C11.2861 51.2893 13.0435 49.6052 15.1867 49.6052C17.1262 49.6052 18.7497 50.9841 19.1285 52.813L19.1302 52.8201C19.1429 52.8821 19.154 52.9446 19.1638 53.0076L19.1657 53.0181C19.1727 53.0637 19.1779 53.1101 19.1833 53.1565C19.1857 53.1775 19.1891 53.1982 19.1912 53.2192C19.1949 53.2554 19.1968 53.2922 19.1996 53.3284C19.2019 53.3601 19.2052 53.3916 19.2068 53.4236C19.2084 53.4563 19.2084 53.4895 19.2093 53.5227C19.2102 53.5586 19.212 53.5942 19.212 53.6306C19.2122 55.8503 17.4063 57.6562 15.1867 57.6562ZM46.1301 57.6562C43.9104 57.6562 42.1046 55.8503 42.1046 53.6306C42.1046 53.5784 42.1065 53.5264 42.1085 53.4744C42.1091 53.4575 42.109 53.4404 42.1098 53.4238C42.1118 53.3853 42.1156 53.3472 42.1186 53.3088C42.1209 53.2791 42.1223 53.249 42.1254 53.2195C42.1267 53.207 42.1288 53.1948 42.1301 53.1824C42.1437 53.0601 42.1621 52.939 42.1865 52.8203C42.1872 52.8169 42.1881 52.8135 42.1889 52.8098C42.569 50.9827 44.1915 49.6052 46.1301 49.6052C46.6849 49.6052 47.2141 49.718 47.6954 49.9221C49.1398 50.5342 50.1555 51.9661 50.1555 53.6309C50.1555 55.8503 48.3497 57.6562 46.1301 57.6562Z" fill="#F1CDB3" fill-opacity="1.000000" fill-rule="evenodd"/>
</svg>
