<svg width="60.000000" height="59.999756" viewBox="0 0 60 59.9998" fill="none" xmlns="http://www.w3.org/2000/svg" xmlns:xlink="http://www.w3.org/1999/xlink">
	<desc>
			Created with Pixso.
	</desc>
	<defs/>
	<rect id="icon-medicines" width="59.999660" height="59.999763" transform="translate(0.000244 0.000000)" fill="#FFFFFF" fill-opacity="0"/>
	<path id="medicines" d="M44.1013 0.343018L59.6565 15.8984C60.114 16.3562 60.114 17.0981 59.6562 17.5557L55.5139 21.6982C55.2849 21.927 54.9851 22.0415 54.6851 22.0415C54.5312 22.0417 54.3789 22.0115 54.2366 21.9526C54.0945 21.8936 53.9653 21.8071 53.8564 21.6982L48.9355 16.7773L44.2766 21.4363L51.4478 28.6072C51.6675 28.8269 51.791 29.125 51.791 29.4358C51.791 29.7466 51.6675 30.0447 51.4478 30.2644L46.6895 35.0229C46.4607 35.2517 46.1609 35.3662 45.8608 35.3662C45.7068 35.3662 45.5544 35.3362 45.4124 35.2771C45.27 35.2183 45.1409 35.1318 45.0322 35.0229L43.521 33.5117L24.0979 52.9346C23.2332 53.7993 22.0835 54.2754 20.8608 54.2754C19.6379 54.2754 18.4883 53.7993 17.6238 52.9346L16.1326 51.4434L13.3982 54.1777C13.1785 54.3975 12.8804 54.5208 12.5696 54.5208C12.2588 54.5208 11.9607 54.3975 11.741 54.1777L9.61011 52.0469L2.00049 59.6565C1.77173 59.8855 1.47168 59.9998 1.17188 59.9998C0.87207 59.9998 0.572021 59.8855 0.343262 59.6565C-0.114502 59.1987 -0.114502 58.4568 0.343262 57.999L7.95288 50.3896L5.82202 48.2588C5.71313 48.1501 5.62695 48.021 5.56812 47.8787C5.50903 47.7366 5.47876 47.5842 5.47876 47.4302C5.47876 47.2764 5.50903 47.124 5.56812 46.9817C5.62695 46.8396 5.71313 46.7104 5.82202 46.6016L8.5564 43.8674L7.06519 42.3762C5.28027 40.5911 5.28027 37.6868 7.06519 35.9021L26.488 16.4785L24.9768 14.9673C24.7571 14.7473 24.6335 14.4495 24.6335 14.1387C24.6335 13.8279 24.7571 13.5298 24.9768 13.3098L29.7351 8.55151C30.1929 8.09399 30.9348 8.09399 31.3926 8.55151L38.5635 15.7227L43.2224 11.0637L38.3015 6.14282C38.0818 5.92285 37.9583 5.625 37.9583 5.31421C37.9583 5.00342 38.0818 4.70532 38.3015 4.48535L42.4441 0.343018C42.9019 -0.114258 43.6438 -0.114258 44.1013 0.343018ZM40.7876 5.31421L54.6855 19.2124L57.1707 16.7271L43.2727 2.8291L40.7876 5.31421ZM45.8608 32.5369L48.9619 29.4358L30.5637 11.0378L27.4626 14.1389L45.8608 32.5369ZM40.2209 17.3801L42.6196 19.7788L47.2786 15.1199L44.8796 12.7212L40.2209 17.3801ZM30.1575 26.9678L24.7358 21.5459L22.7859 23.4956L32.8748 33.5845L38.2341 28.2251L28.1453 18.1365L26.3931 19.8887L31.8149 25.3105C32.2725 25.7681 32.2725 26.5103 31.8149 26.9678C31.5859 27.1965 31.2861 27.311 30.9863 27.311C30.8323 27.3113 30.6799 27.281 30.5376 27.2222C30.3955 27.1631 30.2664 27.0767 30.1575 26.9678ZM19.281 51.2773C20.1521 52.1484 21.5693 52.1482 22.4404 51.2773L34.8459 38.8708L32.874 36.8992L25.2532 44.52C25.0247 44.7488 24.7246 44.8633 24.4246 44.8633C24.1248 44.8633 23.825 44.7488 23.5959 44.52C23.1384 44.0623 23.1384 43.3203 23.5959 42.8625L31.2168 35.2417L21.1282 25.1531L19.2205 27.0605L22.1062 29.9463C22.5637 30.4041 22.5637 31.146 22.1062 31.6035C21.8774 31.8325 21.5774 31.9468 21.2776 31.9468C20.9775 31.9468 20.6777 31.8325 20.4487 31.6035L17.5632 28.718L15.6345 30.6467L21.0564 36.0684C21.5139 36.5261 21.5139 37.2681 21.0564 37.7256C20.8276 37.9543 20.5276 38.0688 20.2278 38.0688C19.9277 38.0688 19.6279 37.9546 19.3992 37.7256L13.9773 32.304L12.0488 34.2327L14.9346 37.1184C15.3921 37.5762 15.3921 38.3181 14.9346 38.7756C14.7058 39.0046 14.4058 39.1189 14.1057 39.1189C13.8059 39.1189 13.5061 39.0046 13.2771 38.7756L10.3916 35.8901L8.72241 37.5593C7.85132 38.4302 7.85132 39.8477 8.72241 40.7188L19.281 51.2773ZM34.5322 35.2417L36.5042 37.2136L41.8635 31.854L39.8916 29.8823L34.5322 35.2417ZM8.30786 47.4302L12.5696 51.6917L14.4751 49.7861L10.2136 45.5247L8.30786 47.4302ZM22.2488 46.5015C22.2781 46.5718 22.3015 46.6458 22.3157 46.7207C22.3308 46.7957 22.3391 46.873 22.3391 46.9492C22.3391 47.0254 22.3308 47.1028 22.3157 47.179C22.3015 47.2527 22.2781 47.3267 22.2488 47.3979C22.2195 47.4683 22.1831 47.5364 22.1411 47.5996C22.0989 47.6641 22.0496 47.7239 21.9956 47.7778C21.887 47.887 21.7576 47.9736 21.6147 48.032C21.4731 48.0913 21.3208 48.1216 21.1672 48.1211C21.0134 48.1216 20.8613 48.0913 20.7195 48.032C20.5769 47.9736 20.4475 47.887 20.3386 47.7778C20.2847 47.7239 20.2356 47.6641 20.1934 47.5996C20.1511 47.5364 20.1147 47.4683 20.0854 47.3979C20.0562 47.3267 20.0327 47.2527 20.0188 47.179C20.0034 47.1028 19.9954 47.0254 19.9954 46.9492C19.9954 46.873 20.0034 46.7957 20.0188 46.7207C20.0327 46.6458 20.0562 46.5718 20.0854 46.5015C20.1147 46.4302 20.1511 46.3621 20.1934 46.2988C20.2356 46.2344 20.2847 46.1746 20.3386 46.1206C20.3926 46.0669 20.4524 46.0176 20.5168 45.9753C20.5801 45.9331 20.6479 45.897 20.7195 45.8677C20.7898 45.8384 20.8638 45.8159 20.9387 45.8008C21.0896 45.7703 21.2449 45.7703 21.3958 45.8008C21.4707 45.8159 21.5444 45.8384 21.6147 45.8677C21.6858 45.8967 21.7537 45.9329 21.8176 45.9753C21.8821 46.0176 21.9419 46.0669 21.9956 46.1206C22.0496 46.1746 22.0989 46.2344 22.1411 46.2988C22.1836 46.3628 22.2197 46.4307 22.2488 46.5015Z" fill="#F1CDB3" fill-opacity="1.000000" fill-rule="evenodd"/>
</svg>
