<svg width="40.000000" height="32.000000" viewBox="0 0 40 32" fill="none" xmlns="http://www.w3.org/2000/svg" xmlns:xlink="http://www.w3.org/1999/xlink">
	<desc>
			Created with Pixso.
	</desc>
	<defs/>
	<rect id="icon-phone" width="39.999996" height="32.000000" fill="#FFFFFF" fill-opacity="0"/>
	<path id="phone" d="M37.5101 2.90479L39.9461 8.89551C40.0131 9.06055 40.0178 9.24512 39.9592 9.41333L38.9848 12.209C38.9281 12.3713 38.8164 12.5076 38.6699 12.5925C38.5235 12.6775 38.3521 12.7056 38.187 12.6719L28.9307 10.7749C28.7915 10.7463 28.664 10.675 28.5651 10.5708C28.4662 10.4663 28.4006 10.3335 28.3769 10.1899L27.5753 5.32593C23.1635 4.18994 16.8365 4.18994 12.4245 5.32593L11.623 10.1899C11.5993 10.3335 11.5337 10.4661 11.4348 10.5706C11.3359 10.675 11.2084 10.7461 11.0692 10.7747L1.8128 12.6716C1.64776 12.7056 1.47633 12.6775 1.32986 12.5925C1.18339 12.5076 1.07166 12.3713 1.01509 12.209L0.0407982 9.41333C-0.0178261 9.24512 -0.0131264 9.0603 0.053978 8.89551L2.48984 2.90479C2.53147 2.80249 2.59568 2.71143 2.67743 2.63867C2.75918 2.56592 2.85626 2.51367 2.96105 2.48584L5.88906 1.70801C14.4609 -0.569336 25.5388 -0.569336 34.111 1.70801L37.0389 2.48584C37.1437 2.51367 37.2408 2.56592 37.3226 2.63867C37.4043 2.71143 37.4685 2.80249 37.5101 2.90479ZM11.2883 4.26782C11.3777 4.16626 11.4935 4.09326 11.6222 4.05688C16.3984 2.70605 23.6016 2.70605 28.378 4.05688C28.5066 4.09326 28.6225 4.1665 28.7119 4.26782C28.8013 4.36938 28.8606 4.49487 28.8828 4.62964L29.1522 6.26465L38.1403 8.1897L36.35 3.78711L33.7593 3.09888C25.4007 0.878174 14.5992 0.878418 6.2409 3.09888L3.65015 3.78711L1.85991 8.1897L10.848 6.26465L11.1174 4.62964C11.1396 4.49487 11.1989 4.36938 11.2883 4.26782ZM33.0995 12.7642C33.1948 12.8613 33.261 12.9841 33.2901 13.1187L36.5321 28.0879C36.5432 28.1389 36.5488 28.1912 36.5488 28.2434L36.5488 31.2817C36.5488 31.4722 36.4749 31.6548 36.3434 31.7896C36.212 31.9243 36.0336 32 35.8477 32L4.15239 32C3.96645 32 3.78814 31.9243 3.65666 31.7896C3.52518 31.6548 3.45132 31.4722 3.45132 31.2817L3.45132 28.2434C3.45134 28.1912 3.45692 28.1389 3.46796 28.0879L6.70996 13.1187C6.73908 12.9841 6.80527 12.8613 6.90063 12.7642C6.996 12.6672 7.11654 12.6006 7.24791 12.5718L12.0224 11.5259L12.6237 7.51392C12.6491 7.34424 12.7329 7.1897 12.86 7.07788C12.9871 6.96606 13.1491 6.90454 13.3166 6.90454L15.1861 6.90454L15.1861 5.96387C15.1861 5.56714 15.4999 5.24561 15.8871 5.24561C16.2744 5.24561 16.5882 5.56714 16.5882 5.96387L16.5882 6.90454L23.4119 6.90454L23.4119 5.96387C23.4119 5.56714 23.7257 5.24561 24.1129 5.24561C24.5002 5.24561 24.814 5.56714 24.814 5.96387L24.814 6.90454L26.6835 6.90454C26.851 6.90454 27.013 6.96606 27.1401 7.07788C27.2672 7.1897 27.351 7.34424 27.3764 7.51392L27.9776 11.5259L32.7522 12.5718C32.8836 12.6006 33.0041 12.6672 33.0995 12.7642ZM1.63184 9.7063L2.13192 11.1411L10.321 9.46289L10.5973 7.78613L1.63184 9.7063ZM29.6792 9.46289L37.8681 11.1411L38.3682 9.7063L29.4028 7.78613L29.6792 9.46289ZM12.7885 12.8274L7.98131 13.8801L5.0261 27.5251L34.9741 27.5251L32.0189 13.8801L27.2115 12.8274C27.0725 12.7969 26.9457 12.7239 26.8481 12.6177C26.7505 12.5117 26.6867 12.3779 26.6651 12.2339L26.0819 8.34131L13.9183 8.34131L13.335 12.2339C13.3134 12.3779 13.2496 12.5117 13.152 12.6177C13.0544 12.7239 12.9276 12.7969 12.7885 12.8274ZM20 26.1606C24.1492 26.1606 27.5248 22.7017 27.5248 18.45C27.5248 14.1982 24.1492 10.7393 20 10.7393C15.8509 10.7393 12.4753 14.1982 12.4753 18.45C12.4753 22.7017 15.8509 26.1606 20 26.1606ZM20 12.176C23.3761 12.176 26.1227 14.9905 26.1227 18.45C26.1227 21.9094 23.3761 24.7239 20 24.7239C16.624 24.7239 13.8774 21.9094 13.8774 18.45C13.8774 14.9905 16.624 12.176 20 12.176ZM22.6691 18.4497C22.6691 19.9578 21.4717 21.1848 20 21.1848C18.5283 21.1848 17.3309 19.9578 17.3309 18.4497C17.3309 16.9417 18.5283 15.7146 20 15.7146C21.4717 15.7146 22.6691 16.9417 22.6691 18.4497ZM21.267 18.4497C21.267 17.7339 20.6987 17.1514 20 17.1514C19.3014 17.1514 18.733 17.7339 18.733 18.4497C18.733 19.1655 19.3014 19.748 20 19.748C20.6987 19.748 21.267 19.1655 21.267 18.4497ZM9.11142 28.9619L4.85345 28.9619L4.85345 30.5632L8.20836 30.5632L9.11142 28.9619ZM10.8935 30.5632L11.7966 28.9619L10.7309 28.9619L9.82782 30.5632L10.8935 30.5632ZM28.6721 28.9619L13.416 28.9619L12.513 30.5632L27.769 30.5632L28.6721 28.9619ZM30.2915 28.9619L29.3885 30.5632L35.1466 30.5632L35.1466 28.9619L30.2915 28.9619Z" fill="#F1CDB3" fill-opacity="1.000000" fill-rule="evenodd"/>
</svg>
