<svg width="60.000000" height="59.999756" viewBox="0 0 60 59.9998" fill="none" xmlns="http://www.w3.org/2000/svg" xmlns:xlink="http://www.w3.org/1999/xlink">
	<desc>
			Created with Pixso.
	</desc>
	<defs/>
	<rect id="icon-sleeping-area" width="60.000000" height="59.999847" fill="#FFFFFF" fill-opacity="0"/>
	<path id="sleeping-area" d="M30.9804 0.226318L57.9526 19.9663C58.2661 20.1958 58.4324 20.5518 58.4324 20.9128C58.4324 21.1528 58.3588 21.3953 58.2059 21.604L54.6806 26.4211C54.5898 26.5452 54.4753 26.6504 54.3438 26.7302C54.2123 26.8103 54.0664 26.8635 53.9143 26.8872C53.7622 26.9106 53.607 26.9041 53.4575 26.8674C53.308 26.8311 53.1671 26.7654 53.0429 26.6746L52.041 25.9414L52.041 58.8279C52.041 59.4751 51.5162 59.9998 50.8691 59.9998L9.76935 59.9998C9.12225 59.9998 8.59747 59.4751 8.59747 58.8279L8.59747 25.896L7.53363 26.6746C7.40948 26.7654 7.26862 26.8311 7.11908 26.8677C6.96954 26.9041 6.81433 26.9106 6.66217 26.8872C6.51007 26.8638 6.36414 26.8103 6.2326 26.7305C6.10114 26.6504 5.98669 26.5454 5.89581 26.4211L2.37048 21.604C2.21777 21.3955 2.14417 21.1531 2.14417 20.9128C2.14417 20.552 2.31036 20.1958 2.62396 19.9663L29.5961 0.226318C29.7969 0.0793457 30.0393 0 30.2882 0C30.5371 0 30.7795 0.0793457 30.9804 0.226318ZM30.9804 7.62354L53.4814 24.0911L55.6229 21.1655L30.2884 2.62402L4.95386 21.1655L7.09503 24.0911L29.5962 7.62354C29.7969 7.47632 30.0394 7.39697 30.2883 7.39722C30.5372 7.39722 30.7796 7.47632 30.9804 7.62354ZM21.9716 53.0854L49.6972 53.0854L49.6972 24.2261L30.2883 10.0212L12.8812 22.7612L38.3843 22.7612C39.0314 22.7612 39.5562 23.2861 39.5562 23.9331C39.5562 24.5803 39.0314 25.105 38.3843 25.105L10.9411 25.105L10.9411 57.6562L49.6972 57.6562L49.6972 55.4292L21.9716 55.4292C21.3245 55.4292 20.7997 54.9045 20.7997 54.2573C20.7997 53.6104 21.3245 53.0854 21.9716 53.0854ZM43.6875 23.4841C43.7168 23.5557 43.7402 23.6294 43.7555 23.7046C43.7706 23.7795 43.7776 23.8569 43.7776 23.9331C43.7776 24.0093 43.7708 24.0864 43.7555 24.1616C43.7402 24.2366 43.7168 24.3105 43.6875 24.3818C43.6582 24.4521 43.6219 24.5203 43.5797 24.5835C43.5375 24.6479 43.4883 24.7078 43.4344 24.7617C43.3804 24.8154 43.3207 24.8647 43.2563 24.907C43.193 24.949 43.125 24.9854 43.0535 25.0146C42.983 25.0447 42.9095 25.0669 42.8344 25.0815C42.7595 25.0967 42.6821 25.105 42.6059 25.105C42.5298 25.105 42.4525 25.0967 42.3775 25.0815C42.3024 25.0674 42.2286 25.0439 42.1583 25.0146C42.0869 24.9854 42.0189 24.949 41.9556 24.907C41.8912 24.8647 41.8314 24.8154 41.7775 24.7617C41.7236 24.7075 41.6744 24.6479 41.6322 24.5835C41.59 24.5203 41.5536 24.4521 41.5244 24.3818C41.4951 24.3103 41.4716 24.2363 41.4576 24.1616C41.4423 24.0867 41.4341 24.0093 41.4341 23.9331C41.4341 23.8569 41.4423 23.7795 41.4576 23.7046C41.4716 23.6294 41.4951 23.5557 41.5244 23.4841C41.5536 23.4138 41.59 23.3459 41.6322 23.2827C41.6744 23.2183 41.7236 23.1584 41.7775 23.1045C41.9954 22.8865 42.2977 22.761 42.6059 22.761C42.9165 22.762 43.2141 22.8855 43.4344 23.1045C43.4888 23.1587 43.5375 23.2185 43.5797 23.2827C43.6219 23.3459 43.6582 23.4138 43.6875 23.4841ZM43.7472 27.948C44.455 28.6475 44.8447 29.5803 44.8447 30.5742C44.8447 30.6416 44.843 30.7092 44.8394 30.7776C44.7159 33.0901 44.3946 35.3877 43.8788 37.6453C44.0342 38.0439 44.1699 38.4497 44.2852 38.8618C44.4373 39.4084 44.5529 39.9648 44.6313 40.5269C44.6899 40.9482 44.7189 41.3684 44.7189 41.7852C44.7189 43.9617 43.9282 46.0496 42.4318 47.7686C40.4861 50.0034 37.6025 51.2852 34.5204 51.2852L26.0568 51.2852C20.4337 51.2852 15.8591 47.0173 15.8591 41.7715C15.8595 41.3552 15.8884 40.9397 15.9456 40.5276C16.0832 39.5405 16.3359 38.573 16.6988 37.6445C16.4549 36.5776 16.2542 35.5012 16.097 34.418C15.9221 33.2095 15.8021 31.9939 15.7376 30.7744C15.734 30.7065 15.7322 30.6387 15.7322 30.571C15.7322 29.4602 16.2186 28.4287 17.0859 27.717C18.0063 26.9619 19.1958 26.6978 20.3492 26.9915C20.3597 26.9941 20.3701 26.9971 20.3806 27C22.5503 27.5557 24.6701 28.2903 26.7183 29.1965C27.2264 29.0762 27.7403 28.9817 28.2581 28.9133C28.9285 28.8257 29.6115 28.7812 30.2885 28.7812C31.4906 28.7805 32.6887 28.9199 33.8586 29.1965C35.9072 28.2903 38.0274 27.5554 40.1974 26.9998C40.4954 26.9209 40.8019 26.8794 41.1101 26.876C42.0876 26.8677 43.0461 27.2554 43.7472 27.948ZM42.4985 30.6511L42.4988 30.647C42.4999 30.6245 42.5005 30.6023 42.5005 30.5801L42.5005 30.574L42.5005 30.5708C42.5005 30.3933 42.4653 30.2178 42.3967 30.054C42.3278 29.8892 42.2266 29.74 42.0992 29.615C41.8444 29.3633 41.4985 29.2195 41.1482 29.2195L41.1329 29.2195C41.03 29.2207 40.9276 29.2334 40.8275 29.2573C38.6401 29.8145 36.5067 30.5647 34.452 31.499C34.205 31.6113 33.9265 31.6343 33.6642 31.5647C32.5714 31.2729 31.4354 31.125 30.2877 31.125C29.712 31.125 29.1312 31.1628 28.562 31.2371C28.0052 31.3105 27.4537 31.4199 26.9111 31.5647C26.6485 31.6345 26.3698 31.6111 26.1225 31.4985C24.0752 30.5674 21.9494 29.8193 19.7701 29.2632L19.7468 29.2571C19.641 29.2319 19.5345 29.2195 19.4291 29.2195C19.1199 29.2195 18.8194 29.3259 18.5721 29.5291C18.2539 29.79 18.0755 30.1682 18.0755 30.5759C18.0755 30.6008 18.0762 30.6257 18.0775 30.6509C18.1382 31.7991 18.2512 32.9438 18.4159 34.0818C18.5811 35.2205 18.7974 36.3508 19.0641 37.4697C19.0854 37.5593 19.096 37.6506 19.096 37.7415C19.096 37.8984 19.0645 38.0547 19.0023 38.2007C18.6413 39.0474 18.3939 39.938 18.2665 40.8496C18.2239 41.1575 18.2023 41.4678 18.2023 41.7715C18.2023 45.7249 21.7256 48.9414 26.0562 48.9414L34.5198 48.9414C36.924 48.9414 39.163 47.9529 40.6634 46.2295C41.7823 44.9443 42.3737 43.3894 42.3737 41.7742C42.3737 41.4678 42.3524 41.1592 42.3094 40.8496C42.2454 40.3909 42.1509 39.937 42.0269 39.4907C41.9037 39.051 41.7523 38.6199 41.5737 38.1997C41.5118 38.054 41.4805 37.8979 41.4805 37.7415C41.4805 37.6504 41.491 37.5593 41.5124 37.4697C42.0461 35.2312 42.3761 32.949 42.4985 30.6511ZM37.1016 37.3687L38.8423 38.1663C39.2726 38.3633 39.5264 38.7881 39.5264 39.2322C39.5264 39.3955 39.4921 39.5615 39.4196 39.7197C39.2225 40.1499 38.7977 40.4036 38.3535 40.4036C38.1853 40.4036 38.019 40.3672 37.8661 40.2969L36.6135 39.7229L35.3609 40.2969C34.7726 40.5669 34.0771 40.3083 33.8075 39.7197C33.735 39.5615 33.7007 39.3955 33.7007 39.2322C33.7007 38.7881 33.9545 38.3633 34.3848 38.1663L36.1254 37.3687C36.2786 37.2983 36.4451 37.262 36.6135 37.262C36.782 37.262 36.9485 37.2983 37.1016 37.3687ZM24.4512 37.3689L26.1919 38.1663C26.622 38.3633 26.8759 38.7881 26.8759 39.2324C26.8759 39.3958 26.8416 39.5615 26.769 39.7197C26.4995 40.3081 25.8037 40.5669 25.2156 40.2971L23.963 39.7231L22.7104 40.2971C22.5705 40.3611 22.4193 40.3972 22.2656 40.4028C22.1118 40.4084 21.9584 40.3838 21.8141 40.3303C21.6699 40.2766 21.5375 40.1951 21.4248 40.0903C21.3121 39.9856 21.221 39.8596 21.157 39.7197C21.0845 39.5615 21.0502 39.3958 21.0502 39.2324C21.0502 38.7883 21.304 38.3635 21.7343 38.1663L23.475 37.3689C23.6282 37.2986 23.7947 37.2622 23.9631 37.2622C24.1316 37.2622 24.2981 37.2986 24.4512 37.3689ZM31.4602 42.5403C31.4602 43.106 31.9205 43.5662 32.4861 43.5662C33.1332 43.5662 33.658 44.0908 33.658 44.738C33.658 45.3853 33.1332 45.9099 32.4861 45.9099C31.6902 45.9106 30.9199 45.6284 30.3129 45.1135C29.7192 45.6355 28.9413 45.9529 28.0906 45.9529C27.4434 45.9529 26.9187 45.428 26.9187 44.781C26.9187 44.1338 27.4434 43.6091 28.0906 43.6091C28.6562 43.6091 29.1165 43.1487 29.1165 42.583L29.1165 42.5403C29.1165 41.8931 29.6411 41.3684 30.2883 41.3684C30.9355 41.3684 31.4602 41.8931 31.4602 42.5403ZM18.8319 53.8091C18.8612 53.8796 18.8835 53.9531 18.8986 54.0281C18.9138 54.1042 18.922 54.1804 18.922 54.2566C18.9213 54.4885 18.8524 54.7151 18.7239 54.9082C18.6819 54.9714 18.6327 55.0312 18.5787 55.0862C18.5246 55.1406 18.4649 55.1895 18.4006 55.2314C18.2079 55.3599 17.9818 55.4287 17.7502 55.4297C17.6741 55.4297 17.5967 55.4214 17.5206 55.4062C17.4467 55.3909 17.3729 55.3687 17.3015 55.3394C17.2311 55.3101 17.1631 55.2737 17.0999 55.2314C17.0355 55.1895 16.9756 55.1401 16.9218 55.0862C16.8666 55.0312 16.8186 54.9714 16.7753 54.9082C16.7332 54.8438 16.6967 54.7759 16.6674 54.7053C16.6087 54.5645 16.5785 54.4131 16.5785 54.2605L16.5785 54.2566C16.5785 54.1804 16.5854 54.1042 16.6008 54.0281C16.631 53.8774 16.6902 53.7341 16.7753 53.6062C16.8186 53.543 16.8666 53.4819 16.9218 53.4282C16.9755 53.3743 17.0354 53.325 17.0999 53.2827C17.1631 53.2407 17.2311 53.2043 17.3015 53.175C17.3729 53.1458 17.4467 53.1235 17.5206 53.1082C17.6718 53.0776 17.8276 53.0776 17.9788 53.1082C18.1294 53.1384 18.2726 53.1978 18.4006 53.2827C18.465 53.3262 18.5248 53.3743 18.5787 53.4282C18.6329 53.4827 18.6815 53.5422 18.7239 53.6062C18.7662 53.6694 18.8026 53.7385 18.8319 53.8091Z" fill="#F1CDB3" fill-opacity="1.000000" fill-rule="evenodd"/>
</svg>
