<svg width="60.000000" height="60.000000" viewBox="0 0 60 60" fill="none" xmlns="http://www.w3.org/2000/svg" xmlns:xlink="http://www.w3.org/1999/xlink">
	<desc>
			Created with Pixso.
	</desc>
	<defs/>
	<rect id="icon-shampoos" width="60.000000" height="59.999882" fill="#FFFFFF" fill-opacity="0"/>
	<path id="shampoos" d="M37.1302 17.1814L37.1302 11.7393C37.1302 11.0188 36.5463 10.4348 35.8259 10.4348L34.8477 10.4348L34.8477 1.3042C34.8477 0.583984 34.2638 0 33.5433 0L25.0651 0C24.3447 0 23.7609 0.583984 23.7609 1.3042L23.7609 10.4348L22.7825 10.4348C22.0621 10.4348 21.4783 11.0186 21.4783 11.739L21.4783 17.1814C16.8977 19.0078 13.6521 23.4878 13.6521 28.7119L13.6521 58.6956C13.6521 59.416 14.2361 60 14.9564 60L43.6521 60C44.3724 60 44.9564 59.416 44.9564 58.6956L44.9564 28.7122C44.9563 23.4878 41.7107 19.0078 37.1302 17.1814ZM26.3694 2.60864L32.239 2.60864L32.239 10.4348L26.3694 10.4348L26.3694 2.60864ZM24.0867 13.0435L34.5215 13.0435L34.5215 16.3042L24.0867 16.3042L24.0867 13.0435ZM42.3475 57.3914L16.2607 57.3914L16.2607 28.7122C16.2607 23.3088 20.6565 18.9131 26.0597 18.9131L32.5486 18.9131C37.9519 18.9131 42.3475 23.3088 42.3475 28.7122L42.3475 57.3914ZM37.7825 27.3914L20.8259 27.3914C20.1056 27.3914 19.5216 27.9753 19.5216 28.6956L19.5216 52.8259C19.5216 53.5464 20.1056 54.1304 20.8259 54.1304L37.7825 54.1304C38.5028 54.1304 39.0868 53.5464 39.0868 52.8259L39.0868 44.6287C39.0868 43.9084 38.5028 43.3245 37.7825 43.3245C37.0621 43.3245 36.4781 43.9084 36.4781 44.6287L36.4781 51.5217L22.1304 51.5217L22.1304 30L36.4781 30L36.4781 34.1287C36.4781 34.8491 37.0621 35.4331 37.7825 35.4331C38.5028 35.4331 39.0868 34.8491 39.0868 34.1287L39.0868 28.6958C39.0868 27.9753 38.5028 27.3914 37.7825 27.3914ZM30.9326 32.0713C33.0902 32.0713 34.8456 33.8267 34.8456 35.9841C34.8456 38.1418 33.0901 39.8975 30.9326 39.8972C28.7749 39.8972 27.0197 38.1418 27.0197 35.9841C27.0197 33.8267 28.7749 32.0713 30.9326 32.0713ZM29.6282 35.9844C29.6282 36.7036 30.2133 37.2886 30.9325 37.2886C31.6519 37.2886 32.2368 36.7036 32.2368 35.9844C32.2368 35.2651 31.6516 34.6802 30.9325 34.6802C30.2133 34.6802 29.6282 35.2651 29.6282 35.9844ZM36.4781 39.3687C36.4781 38.6484 37.062 38.0645 37.7825 38.0645C38.5028 38.0645 39.0867 38.6484 39.0867 39.3687L39.0867 39.4993C39.0867 40.2195 38.5028 40.8035 37.7825 40.8035C37.062 40.8035 36.4781 40.2195 36.4781 39.4993L36.4781 39.3687ZM27.9922 41.1511C25.8346 41.1511 24.0792 42.9065 24.0792 45.0642C24.0792 47.2219 25.8346 48.9773 27.9922 48.9773C30.1499 48.9773 31.9052 47.2219 31.9052 45.0642C31.9052 42.9067 30.1499 41.1511 27.9922 41.1511ZM27.9922 46.3687C27.2731 46.3687 26.6879 45.7834 26.6879 45.0645C26.6879 44.3452 27.2731 43.76 27.9922 43.76C28.7114 43.76 29.2965 44.3452 29.2965 45.0645C29.2965 45.7834 28.7115 46.3687 27.9922 46.3687Z" fill="#F1CDB3" fill-opacity="1.000000" fill-rule="evenodd"/>
</svg>
