<svg width="40.000000" height="32.000000" viewBox="0 0 40 32" fill="none" xmlns="http://www.w3.org/2000/svg" xmlns:xlink="http://www.w3.org/1999/xlink">
	<desc>
			Created with Pixso.
	</desc>
	<defs/>
	<rect id="icon-email" width="40.000000" height="32.000000" fill="#FFFFFF" fill-opacity="0"/>
	<path id="mail" d="M0.684963 3L39.315 3C39.4967 3 39.6709 3.07324 39.7994 3.20361C39.9278 3.33398 40 3.51074 40 3.69531L40 28.3047C40 28.4893 39.9278 28.666 39.7994 28.7964C39.6709 28.9268 39.4967 29 39.315 29L0.684963 29C0.5033 29 0.329079 28.9268 0.200623 28.7964C0.0721664 28.666 0 28.4893 0 28.3047L0 3.69531C0 3.51074 0.0721664 3.33398 0.200623 3.20361C0.329079 3.07324 0.5033 3 0.684963 3ZM30.4053 11.4795C30.4705 11.5415 30.5345 11.6023 30.5975 11.6606L37.6748 4.39038L2.32449 4.39038L19.9997 22.5464L22.7775 19.6929C22.5473 19.0496 22.6975 18.3557 22.8328 17.7336C22.9081 17.3865 22.9794 17.0588 22.9794 16.7822C22.9794 16.5056 22.9081 16.1777 22.8328 15.8308C22.6768 15.1135 22.5001 14.3003 22.9109 13.5796C23.3336 12.8381 24.1275 12.5876 24.8281 12.3665C25.1518 12.2644 25.4574 12.168 25.6761 12.0396C25.8796 11.9202 26.1045 11.7061 26.3426 11.4795C26.8575 10.9895 27.4982 10.3799 28.374 10.3799C29.2497 10.3799 29.8904 10.9895 30.4053 11.4795ZM33.8371 19.9846C33.6223 20.3611 33.3117 20.6108 32.9664 20.7947L38.6301 26.6123L38.6301 5.38745L31.8559 12.3464L31.9197 12.3665C32.6203 12.5876 33.4142 12.8381 33.837 13.5796C34.2478 14.3005 34.0711 15.1135 33.9151 15.8308C33.8398 16.1777 33.7686 16.5056 33.7686 16.7822C33.7686 17.0588 33.8398 17.3865 33.9151 17.7336C34.0711 18.4509 34.2478 19.2639 33.8371 19.9846ZM1.36993 26.6116L11.7007 16L1.36993 5.38818L1.36993 26.6116ZM32.6513 19.2883C32.7954 19.0354 32.6846 18.5259 32.5775 18.0332C32.4895 17.6287 32.3986 17.2102 32.3986 16.782C32.3986 16.3538 32.4895 15.9355 32.5775 15.531C32.6846 15.0381 32.7954 14.5286 32.6512 14.2759C32.4966 14.0044 31.9966 13.8467 31.5131 13.6941C31.1316 13.5737 30.7373 13.4492 30.3857 13.2429C30.0461 13.0435 29.7523 12.7639 29.4683 12.4937C29.0773 12.1216 28.7079 11.7703 28.374 11.7703C28.04 11.7703 27.6706 12.1216 27.2797 12.4937C26.9956 12.7639 26.7018 13.0435 26.3622 13.2429C26.0107 13.4495 25.6163 13.574 25.2348 13.6943C24.7513 13.8469 24.2513 14.0046 24.0967 14.2759C23.9526 14.5288 24.0633 15.0383 24.1705 15.531L24.1705 15.531C24.2584 15.9355 24.3493 16.354 24.3493 16.7822C24.3493 17.2102 24.2584 17.6284 24.1705 18.033L24.1704 18.0332C24.0633 18.5261 23.9526 19.0354 24.0967 19.2883C24.2513 19.5596 24.7513 19.7173 25.2348 19.8699C25.6163 19.9902 26.0107 20.1147 26.3622 20.321C26.7018 20.5205 26.9956 20.8 27.2797 21.0703C27.6706 21.4424 28.04 21.7939 28.374 21.7939C28.7079 21.7939 29.0772 21.4426 29.4683 21.0703C29.7523 20.8 30.0461 20.5208 30.3857 20.321C30.7373 20.1147 31.1316 19.9902 31.5131 19.8699C31.9966 19.7173 32.4966 19.5596 32.6513 19.2883ZM24.8865 16.782C24.8865 14.8303 26.451 13.2424 28.374 13.2424C30.2969 13.2424 31.8615 14.8303 31.8615 16.782C31.8615 18.7336 30.297 20.3215 28.374 20.3215C26.451 20.3215 24.8865 18.7336 24.8865 16.782ZM26.2564 16.782C26.2564 17.967 27.2064 18.9312 28.374 18.9312C29.5415 18.9312 30.4915 17.967 30.4915 16.782C30.4915 15.5969 29.5416 14.6328 28.374 14.6328C27.2063 14.6328 26.2564 15.5969 26.2564 16.782ZM19.5124 24.0242L12.6635 16.989L2.32431 27.6094L37.675 27.6094L31.5502 21.3179C31.3691 21.3806 31.2043 21.4465 31.0718 21.5244C30.8682 21.644 30.6434 21.8579 30.4053 22.0847C29.8904 22.5747 29.2496 23.1843 28.374 23.1843C27.4982 23.1843 26.8575 22.5747 26.3426 22.0847C26.1044 21.8582 25.8796 21.644 25.6761 21.5247C25.4575 21.3962 25.1518 21.2998 24.8281 21.1975C24.4495 21.0781 24.044 20.9495 23.6842 20.7397L20.4868 24.0242C20.4231 24.0896 20.3472 24.1416 20.2636 24.177C20.18 24.2124 20.0902 24.2307 19.9996 24.2307C19.9089 24.2307 19.8192 24.2124 19.7356 24.177C19.6519 24.1416 19.5761 24.0896 19.5124 24.0242Z" fill="#F1CDB3" fill-opacity="1.000000" fill-rule="evenodd"/>
</svg>
